<svg width="30" height="30" viewBox="0 0 30 30" fill="none" xmlns="http://www.w3.org/2000/svg">
<path d="M25.0259 4.97052C19.3315 -0.722175 10.1004 -0.720808 4.40766 4.97366C-1.28504 10.6681 -1.28367 19.8992 4.41079 25.5919C10.1053 31.2846 19.3363 31.2832 25.029 25.5888C27.763 22.854 29.2985 19.1451 29.2976 15.2781C29.2968 11.4117 27.7603 7.70403 25.0259 4.97052ZM22.2189 21.0107C22.2183 21.0113 22.2176 21.012 22.2169 21.0126V21.0078L21.4782 21.7416C20.5229 22.709 19.1315 23.107 17.8091 22.7913C16.4767 22.4347 15.2102 21.867 14.0574 21.1099C12.9864 20.4254 11.9938 19.6252 11.0978 18.7237C10.2733 17.9053 9.53262 17.0066 8.88657 16.0411C8.17993 15.0022 7.62063 13.8705 7.22454 12.6781C6.77047 11.2774 7.14674 9.74034 8.19651 8.70772L9.06153 7.8427C9.30203 7.60112 9.69282 7.60026 9.93435 7.84076C9.93497 7.84139 9.93566 7.84202 9.93628 7.8427L12.6675 10.5739C12.909 10.8144 12.9099 11.2052 12.6694 11.4467C12.6688 11.4473 12.6681 11.4479 12.6675 11.4486L11.0637 13.0523C10.6036 13.5075 10.5457 14.2308 10.9277 14.7533C11.5077 15.5493 12.1496 16.2984 12.8473 16.9937C13.6252 17.7749 14.4708 18.4856 15.3744 19.1174C15.8964 19.4815 16.6042 19.4201 17.0558 18.9716L18.6061 17.397C18.8466 17.1555 19.2374 17.1546 19.4789 17.3951C19.4795 17.3957 19.4801 17.3964 19.4808 17.397L22.2169 20.1379C22.4585 20.3784 22.4594 20.7691 22.2189 21.0107Z" fill="rgb(31, 224, 241)"/>
</svg>
